<mxfile host="app.diagrams.net" modified="2021-05-21T10:41:50.849Z" agent="5.0 (Macintosh; Intel Mac OS X 10_13_4) AppleWebKit/537.36 (KHTML, like Gecko) Chrome/89.0.4389.114 Safari/537.36" etag="KiTy2esVXC28Mq5tfpWv" version="14.6.13" type="github">
  <diagram id="EnPfII4K-Jzxu1t5vm5t" name="Page-1">
    <mxGraphModel dx="946" dy="533" grid="1" gridSize="10" guides="1" tooltips="1" connect="1" arrows="1" fold="1" page="1" pageScale="1" pageWidth="827" pageHeight="1169" math="0" shadow="0">
      <root>
        <mxCell id="0" />
        <mxCell id="1" parent="0" />
      </root>
    </mxGraphModel>
  </diagram>
</mxfile>
